<svg xmlns="http://www.w3.org/2000/svg" version="1.1" xmlns:xlink="http://www.w3.org/1999/xlink" xmlns:svgjs="http://svgjs.dev/svgjs" width="1440" height="560" preserveAspectRatio="none" viewBox="0 0 1440 560"><g mask="url(&quot;#SvgjsMask1060&quot;)" fill="none"><rect width="1440" height="560" x="0" y="0" fill="url(&quot;#SvgjsLinearGradient1061&quot;)"></rect><path d="M1093.5055267136215 176.21313257014188L1021.1675897541805 111.07976157569904 959.6365017422368 252.1533525120819z" fill="rgba(255, 249, 245, 0.4)" class="triangle-float2"></path><path d="M758.3191074713197 139.7936806186198L598.5059292544977 47.322313475175974 595.689063982215 208.70041684326614z" fill="rgba(255, 249, 245, 0.4)" class="triangle-float3"></path><path d="M471.1421972574258 204.16457364459177L478.7101054343005 95.93844454566474 370.4839763353734 88.37053636879004 362.9160681584988 196.59666546771706z" fill="rgba(255, 249, 245, 0.4)" class="triangle-float1"></path><path d="M827.1951768980731 379.835906471091L898.1456564723179 431.3844472641555 949.6941972653824 360.43396768991073 878.7437176911376 308.8854268968462z" fill="rgba(255, 249, 245, 0.4)" class="triangle-float3"></path><path d="M934.848,176.089C971.299,175.874,1004.534,158.617,1025.119,128.533C1049.196,93.345,1067.808,48.862,1047.587,11.325C1026.665,-27.512,978.895,-41.466,934.848,-39.039C895.005,-36.844,860.88,-12.353,841.749,22.665C823.43,56.196,822.889,96.944,842.711,129.61C861.837,161.129,897.981,176.307,934.848,176.089" fill="rgba(255, 249, 245, 0.4)" class="triangle-float2"></path><path d="M186.13218754961116 265.435518369865L276.7204130249066 303.8879387292452 224.5846079089914 174.8472928945696z" fill="rgba(255, 249, 245, 0.4)" class="triangle-float1"></path></g><defs><mask id="SvgjsMask1060"><rect width="1440" height="560" fill="#ffffff"></rect></mask><linearGradient x1="15.28%" y1="-39.29%" x2="84.72%" y2="139.29%" gradientUnits="userSpaceOnUse" id="SvgjsLinearGradient1061"><stop stop-color="#0e2a47" offset="0"></stop><stop stop-color="rgba(0, 0, 0, 1)" offset="1"></stop></linearGradient><style>
                @keyframes float1 {
                    0%{transform: translate(0, 0)}
                    50%{transform: translate(-10px, 0)}
                    100%{transform: translate(0, 0)}
                }

                .triangle-float1 {
                    animation: float1 5s infinite;
                }

                @keyframes float2 {
                    0%{transform: translate(0, 0)}
                    50%{transform: translate(-5px, -5px)}
                    100%{transform: translate(0, 0)}
                }

                .triangle-float2 {
                    animation: float2 4s infinite;
                }

                @keyframes float3 {
                    0%{transform: translate(0, 0)}
                    50%{transform: translate(0, -10px)}
                    100%{transform: translate(0, 0)}
                }

                .triangle-float3 {
                    animation: float3 6s infinite;
                }
            </style></defs></svg>